<svg xmlns="http://www.w3.org/2000/svg" fill="none" viewBox="0 0 275 54"><path fill="#111" fill-opacity=".3" d="M45 26.667H15a5 5 0 0 0-5 5v16.666a5 5 0 0 0 5 5h30a5 5 0 0 0 5-5V31.667a5 5 0 0 0-5-5"/><path fill="#111" fill-opacity=".6" d="M40 13.333H10a5 5 0 0 0-5 5V35a5 5 0 0 0 5 5h30a5 5 0 0 0 5-5V18.333a5 5 0 0 0-5-5"/><path fill="#5be49b" d="M35 0H5a5 5 0 0 0-5 5v16.667a5 5 0 0 0 5 5h30a5 5 0 0 0 5-5V5a5 5 0 0 0-5-5"/><path fill="#f4f1ea" d="M12.554 19.182V4.03h.971v15.152zm2.575-10.15q-.07-.717-.61-1.113-.538-.397-1.462-.397-.626 0-1.059.178a1.5 1.5 0 0 0-.663.48q-.225.306-.225.698a1 1 0 0 0 .136.568q.154.243.42.42.267.171.616.302.35.125.746.213l1.089.26a7.7 7.7 0 0 1 1.456.474q.663.296 1.148.728.486.432.752 1.018.272.585.278 1.343-.006 1.113-.568 1.93-.557.81-1.61 1.26-1.047.444-2.527.444-1.468 0-2.557-.45-1.083-.45-1.693-1.331-.603-.888-.633-2.196h2.48q.041.61.349 1.018.314.403.834.61.527.2 1.19.2.65 0 1.13-.188.486-.19.752-.527.267-.338.267-.776 0-.408-.243-.686-.236-.278-.699-.474a7 7 0 0 0-1.118-.355l-1.32-.331q-1.533-.373-2.42-1.166-.888-.793-.883-2.137-.005-1.101.586-1.923.598-.823 1.64-1.285 1.041-.46 2.367-.461 1.35 0 2.356.461 1.013.462 1.574 1.285.562.822.58 1.905zm18.204-.282a1.25 1.25 0 1 1 0 2.5h-10a1.25 1.25 0 0 1 0-2.5zM30 15.417a1.25 1.25 0 0 1 0 2.5h-6.667a1.25 1.25 0 0 1 0-2.5z"/><path fill="#0b1f3a" d="m243.856 37.675.016-8.468h1.028l8.153-9.661h8.104l-10.954 12.793h-1.674zM237.459 45V11.06h7.06V45zm15.909 0-7.49-11.087 4.706-4.988L261.638 45zm-33.028.497q-3.861 0-6.678-1.64-2.8-1.657-4.326-4.608-1.524-2.966-1.524-6.877 0-3.944 1.524-6.894 1.525-2.966 4.326-4.607 2.817-1.657 6.678-1.657t6.662 1.657q2.817 1.641 4.342 4.607 1.524 2.95 1.525 6.894 0 3.912-1.525 6.877-1.524 2.95-4.342 4.607-2.8 1.641-6.662 1.641m.033-5.469q1.757 0 2.934-.994 1.176-1.01 1.773-2.75.613-1.74.613-3.962 0-2.22-.613-3.96-.597-1.74-1.773-2.751-1.177-1.011-2.934-1.011-1.773 0-2.983 1.01-1.192 1.012-1.806 2.752-.597 1.74-.596 3.96 0 2.22.596 3.961.613 1.74 1.806 2.751 1.21.994 2.983.994M179.304 45V11.06h7.06v12.761h.215q.464-1.027 1.342-2.088.895-1.077 2.32-1.79 1.443-.729 3.58-.729 2.784 0 5.137 1.458 2.353 1.442 3.762 4.359 1.409 2.9 1.409 7.275 0 4.26-1.376 7.192-1.359 2.917-3.712 4.425-2.337 1.491-5.237 1.491-2.055 0-3.496-.68-1.425-.678-2.337-1.706-.912-1.044-1.392-2.105h-.315V45zm6.91-12.727q0 2.27.63 3.96.63 1.691 1.823 2.635 1.194.929 2.9.928 1.723 0 2.917-.944 1.192-.962 1.806-2.652.63-1.707.63-3.927 0-2.204-.613-3.878t-1.807-2.619-2.933-.944q-1.724 0-2.916.911-1.177.912-1.807 2.586t-.63 3.944M136.606 45V19.546h6.728v4.49h.299q.795-2.237 2.651-3.53t4.442-1.292q2.618 0 4.457 1.31 1.84 1.291 2.453 3.512h.265q.78-2.187 2.817-3.496 2.055-1.326 4.856-1.326 3.563 0 5.784 2.27 2.237 2.254 2.237 6.397V45h-7.043V29.273q0-2.12-1.127-3.182-1.126-1.06-2.817-1.06-1.923 0-3 1.226-1.077 1.21-1.077 3.198V45h-6.844V29.124q0-1.872-1.077-2.983-1.062-1.11-2.801-1.11-1.177 0-2.121.596-.929.58-1.475 1.641-.547 1.044-.547 2.453V45zm-16.29.497q-3.927 0-6.761-1.59-2.818-1.608-4.342-4.541-1.525-2.95-1.525-6.977 0-3.928 1.525-6.894t4.292-4.624q2.784-1.657 6.529-1.657 2.52 0 4.69.812a10.4 10.4 0 0 1 3.812 2.403q1.64 1.608 2.552 4.044.91 2.42.911 5.667v1.94h-21.494v-4.376h14.849q0-1.524-.663-2.701a4.75 4.75 0 0 0-1.84-1.84q-1.16-.68-2.701-.68-1.607 0-2.85.747a5.2 5.2 0 0 0-1.922 1.972q-.696 1.226-.713 2.734v4.16q0 1.89.696 3.264a5.1 5.1 0 0 0 2.005 2.121q1.293.746 3.066.746 1.177 0 2.154-.331a4.5 4.5 0 0 0 1.674-.995 4.3 4.3 0 0 0 1.061-1.623l6.529.43q-.497 2.355-2.038 4.11-1.525 1.74-3.944 2.718-2.403.96-5.552.961M66.15 45V19.546h6.729v4.49h.298q.795-2.237 2.651-3.53t4.442-1.292q2.618 0 4.458 1.31 1.84 1.291 2.452 3.512h.265q.78-2.187 2.818-3.496 2.055-1.326 4.855-1.326 3.564 0 5.784 2.27 2.237 2.254 2.237 6.397V45h-7.043V29.273q0-2.12-1.127-3.182-1.127-1.06-2.817-1.06-1.922 0-3 1.226-1.077 1.21-1.077 3.198V45h-6.844V29.124q0-1.872-1.077-2.983-1.06-1.11-2.8-1.11a3.9 3.9 0 0 0-2.122.596q-.928.58-1.475 1.641-.547 1.044-.547 2.453V45z"/><path fill="#5be49b" d="M270 46.667a5 5 0 1 0 0-10 5 5 0 0 0 0 10"/></svg>
